<svg xmlns="http://www.w3.org/2000/svg" width="500" height="500" viewBox="0 0 500 500" fill="none">
  <path fill-rule="evenodd" clip-rule="evenodd" d="M0.521954 141.026C0.99235 268.148 1.32582 283.486 3.9001 296.592C23.8951 398.377 101.799 476.482 203.902 497.11C215.079 499.369 225.78 500.031 250.619 499.999C287.043 499.952 302.112 497.568 332.074 487.109C426.41 454.18 492.912 366.715 498.958 267.62L500 250.55H374.789H249.58L252.515 254.248C254.131 256.284 266.558 270.46 280.134 285.751L304.813 313.555H366.024H427.235L426.108 317.19C425.489 319.19 421.882 327.004 418.095 334.557C391.724 387.135 344.837 423.195 286.537 435.734C268.064 439.707 231.43 439.676 212.762 435.671C132.426 418.435 71.9448 352.566 63.0556 272.628C61.0983 255.02 60.7084 200.413 62.5417 200.58C63.207 200.641 71.7241 209.83 81.4703 221C91.2165 232.169 109.34 252.715 121.744 266.659C134.148 280.6 155.155 304.308 168.426 319.34C181.697 334.374 198.665 353.398 206.133 361.616L219.713 376.56H265.506C292.717 376.56 311.08 375.956 310.761 375.072C310.295 373.783 258.184 314.416 215.282 266.3C206.761 256.744 202.077 250.319 203.374 249.97C204.55 249.655 210.95 248.104 217.595 246.524C254.307 237.796 283.673 213.41 300.464 177.709C314.745 147.345 316.138 116.258 304.708 82.9417C299.468 67.6638 299.434 67.6961 314.617 73.4279C351.294 87.2744 383.815 112.638 404.465 143.499L413.325 156.741L447.475 156.796L481.626 156.851L479.106 150.793C462.281 110.337 427.359 68.2567 389.913 43.3214C361.175 24.1841 333.607 12.3893 299.484 4.63003C284.91 1.31502 280.084 1.19224 142.225 0.605814L0 0L0.521954 141.026ZM198.587 63.3391C217.112 67.2503 235.066 80.6202 242.974 96.3875C258.846 128.042 245.498 166.244 212.962 182.274L203.902 186.738L132.618 187.219L61.3335 187.702V125.481V63.2616L78.6511 62.7414C125.415 61.3391 190.657 61.6638 198.587 63.3391Z" fill="white"></path>
</svg>
